<?xml version="1.0" encoding="iso-8859-1"?>
<!-- Uploaded to: SVG Repo, www.svgrepo.com, Generator: SVG Repo Mixer Tools -->
<!DOCTYPE svg PUBLIC "-//W3C//DTD SVG 1.1//EN" "http://www.w3.org/Graphics/SVG/1.1/DTD/svg11.dtd">
<svg fill="#000000" version="1.1" id="Capa_1" xmlns="http://www.w3.org/2000/svg" xmlns:xlink="http://www.w3.org/1999/xlink" 
	 width="800px" height="800px" viewBox="0 0 49.888 49.888"
	 xml:space="preserve">
<g>
	<g id="Capa_1_1_">
		<g id="Layer_1_copy_32_">
			<path d="M8.029,23.715c-1.124,0-1.701,0.823-1.701,1.963c0,1.185,0.518,1.964,1.776,1.964c0.539,0,0.989-0.15,1.326-0.347v-0.567
				c-0.412,0.245-0.787,0.389-1.191,0.389c-0.771,0-1.139-0.396-1.139-1.297h2.442v-0.275C9.543,24.321,8.966,23.715,8.029,23.715z
				 M7.115,25.317c0.082-0.748,0.435-1.101,0.892-1.101c0.405,0,0.787,0.313,0.824,1.101H7.115z M12.016,23.715
				c-0.405,0-0.787,0.157-1.013,0.277v-2.136l-0.779,0.187v5.231c0.45,0.239,1.064,0.367,1.462,0.367
				c1.087,0,1.761-0.683,1.761-2.085C13.447,24.359,12.945,23.715,12.016,23.715z M11.686,27.116c-0.188,0-0.449-0.014-0.689-0.119
				v-2.451c0.3-0.165,0.518-0.247,0.816-0.247c0.502,0,0.848,0.308,0.848,1.258C12.661,26.772,12.241,27.116,11.686,27.116z
				 M27.529,24.839v2.712H26.75V25.01c0-0.592-0.291-0.697-0.676-0.697c-0.299,0-0.682,0.135-0.914,0.27v2.967h-0.778v-3.282
				c0.337-0.202,1.049-0.554,1.911-0.554C27.191,23.715,27.529,24.067,27.529,24.839z M18.499,22.238h0.929v5.313h-0.809v-3.853
				h-0.067l-1.529,3.853h-0.479l-1.529-3.762h-0.067v3.762h-0.674v-5.313h0.906l1.679,4.188h0.038L18.499,22.238z M21.961,23.715
				c-0.989,0-1.709,0.652-1.709,1.963c0,1.281,0.683,1.964,1.709,1.964c1.027,0,1.709-0.683,1.709-1.964
				C23.67,24.366,22.95,23.715,21.961,23.715z M21.961,27.116c-0.532,0-0.922-0.41-0.922-1.438c0-1.012,0.428-1.439,0.922-1.439
				c0.51,0,0.922,0.427,0.922,1.439C22.883,26.706,22.493,27.116,21.961,27.116z M46.05,28.571l1.321,1.51
				c-0.262,0.203-0.549,0.396-0.864,0.574c-0.955,0.545-2.062,0.856-3.237,0.856c-3.617,0-6.568-2.95-6.568-6.567
				c0-3.618,2.951-6.568,6.568-6.568c1.03,0,2.008,0.24,2.879,0.666c0.137,0.065,0.272,0.137,0.407,0.215l-0.604,0.541l-0.906-0.939
				l-1.533,1.368l-0.908-0.994l-2.859,2.574l1.832,2.019l-0.721,0.632l1.805,2.021l-0.717,0.631l2.578,2.869L46.05,28.571z
				 M49.186,24.495l0.702,0.781l-0.78,0.703l-0.703-0.781L49.186,24.495z M34.355,23.841h0.803l-1.355,3.748
				c-0.375,1.035-0.832,1.574-1.693,1.574V28.55c0.51,0,0.824-0.404,1.004-0.959l-1.438-3.749H32.5l0.959,2.759h0.045L34.355,23.841
				z M29.927,23.715c-1.125,0-1.701,0.823-1.701,1.963c0,1.185,0.517,1.964,1.775,1.964c0.539,0,0.987-0.15,1.325-0.347v-0.567
				c-0.411,0.245-0.786,0.389-1.19,0.389c-0.771,0-1.14-0.396-1.14-1.297h2.443v-0.275C31.441,24.321,30.863,23.715,29.927,23.715z
				 M29.011,25.317c0.084-0.748,0.437-1.101,0.894-1.101c0.403,0,0.787,0.313,0.824,1.101H29.011z M48.105,27.247l1.055,1.172
				l-1.172,1.055l-1.056-1.172L48.105,27.247z M44.994,20.05l1.055,1.172l-1.172,1.055l-1.055-1.172L44.994,20.05z M42.517,20.455
				l1.406,1.562l-1.562,1.406l-1.406-1.562L42.517,20.455z M45.957,24.632l-1.055-1.171l1.17-1.055l1.057,1.171L45.957,24.632z
				 M47.406,22.879l0.779-0.703l0.702,0.781l-0.778,0.703L47.406,22.879z M5.233,22.238H6.11l-1.215,5.313h-0.81l-1.019-3.74H3.013
				l-0.989,3.74h-0.81L0,22.238h0.84l0.839,3.964h0.053l0.974-3.964h0.667l1.042,3.964h0.053L5.233,22.238z M46.959,27.106
				l-1.057-1.17l1.172-1.056l1.057,1.17L46.959,27.106z M46.408,20.558l0.781-0.703l0.702,0.781l-0.78,0.703L46.408,20.558z
				 M43.48,26.09l-1.406-1.562l1.562-1.408l1.406,1.562L43.48,26.09z M44.591,28.79l-1.405-1.562l1.561-1.406l1.406,1.562
				L44.591,28.79z"/>
		</g>
	</g>
</g>
</svg>